<svg width="100" height="100" viewBox="0 0 100 100" fill="none" xmlns="http://www.w3.org/2000/svg">
    <path fill-rule="evenodd" clip-rule="evenodd" d="M83.6978 86.939C93.7152 77.7954 100 64.6317 100 50C100 22.3858 77.6142 0 50 0C22.3858 0 0 22.3858 0 50C0 65.9848 7.50102 80.2176 19.1751 89.3706C19.133 89.1052 19.1256 88.8335 19.1519 88.5592C19.1745 88.3245 19.134 88.12 18.9699 87.9621C18.8478 87.8963 18.7206 87.9522 18.5978 88.0062C18.4412 88.0752 18.2917 88.141 18.169 87.9462C17.8273 87.4036 17.5226 86.8351 17.448 86.1762C17.3961 85.7172 17.5388 85.3003 17.681 84.8849C17.725 84.7563 17.7689 84.6278 17.8071 84.4982C18.3354 82.7031 18.549 80.8659 18.6669 79.0039C18.7682 77.4056 18.6851 75.8213 18.5072 74.2389C18.4402 73.6425 18.6267 73.2279 19.0863 72.8553C21.3007 71.0596 22.5005 68.6431 23.2081 65.9492C23.4656 64.9689 23.4006 63.9612 23.1442 62.9877C22.4533 60.365 21.9581 57.7175 21.9704 54.9927C21.9712 54.7972 21.9572 54.5931 21.758 54.3421C21.6935 54.4598 21.6299 54.5737 21.5676 54.6853C21.4341 54.9243 21.3065 55.1527 21.1882 55.3859C20.8103 56.1308 20.3444 56.7924 19.5827 57.1972C19.2784 57.3589 19.0579 57.4522 18.6374 57.3043C18.3362 57.1985 17.962 57.3008 17.5875 57.4031C17.4222 57.4483 17.2569 57.4935 17.0977 57.5209C17.0596 57.5274 17.0212 57.5378 16.9824 57.5484C16.8325 57.5891 16.6776 57.6311 16.5186 57.454C16.6103 57.3557 16.7022 57.2576 16.794 57.1595C16.9956 56.9441 17.1971 56.7289 17.3967 56.512C18.0336 55.8201 18.0196 55.0009 18.0052 54.1613C18.0028 54.022 18.0004 53.8822 18.001 53.7423C18.0085 51.8583 18.6869 50.3103 20.3717 49.2584C21.7739 48.3829 22.9613 47.2154 23.9978 45.9442C25.9601 43.5377 28.5336 42.3341 31.5077 41.7904C33.3882 41.4467 35.2853 41.2261 37.1815 41.0056C37.8319 40.93 38.4821 40.8544 39.1315 40.7738C42.9224 40.3035 46.2625 38.9128 48.927 36.1704C51.0441 33.9912 53.7092 33.3253 56.5472 33.0082C58.6105 32.7776 60.4715 32.1728 61.9351 30.5924C63.9407 28.4268 65.9793 26.2915 68.0223 24.1609C68.3407 23.829 68.3118 23.6009 68.0629 23.2558C67.3724 22.298 66.7687 21.2893 66.5521 20.102C66.5126 19.8855 66.4802 19.6606 66.4943 19.4427C66.5317 18.8603 66.7243 18.7422 67.2717 18.9608C68.1187 19.2991 68.808 19.8746 69.4963 20.4494C69.541 20.4867 69.5857 20.524 69.6304 20.5613C69.818 20.7174 70.0018 20.8784 70.1814 21.0437C70.3719 21.2191 70.5662 21.2238 70.7895 21.1038C71.0425 20.9678 71.0488 20.7612 70.9711 20.5347C70.0098 17.7347 68.1843 15.2804 64.9263 14.6939C62.6268 14.2799 60.5836 14.8828 58.7118 16.2083C58.6779 16.2324 58.6462 16.2612 58.6139 16.2907C58.5001 16.3945 58.3776 16.5063 58.1151 16.4438C59.183 14.2845 61.0046 13.1718 63.3559 12.5057C61.5267 11.6963 59.7805 11.7747 58.0599 12.0736C56.3206 12.3758 54.7102 13.0648 53.3328 14.3336C53.221 13.9911 53.356 13.7991 53.4793 13.6237C53.5007 13.5932 53.5218 13.5632 53.5412 13.533C54.9965 11.2647 57.1902 10.1919 59.745 9.68229C61.2626 9.37959 62.7794 9.36629 64.3641 9.57372C66.8541 9.98681 69.0702 10.9189 71.0195 12.4187C73.3337 14.1991 75.116 16.4068 76.09 19.196C76.2668 19.7021 76.4828 20.095 76.9891 20.3474C78.0348 20.8689 78.2137 21.9092 78.3844 22.9013C78.3897 22.9321 78.395 22.9628 78.4003 22.9935C78.5057 23.603 78.7741 24.0573 79.1804 24.4868C80.8512 26.2532 82.7678 27.7291 84.7063 29.1778C85.228 29.5677 85.5241 29.9866 85.1844 30.64C85.0688 30.8624 85.0628 31.1064 85.0569 31.3477C85.0557 31.3948 85.0546 31.4419 85.0526 31.4886C84.9733 33.3727 83.4348 34.0642 82.0935 33.6553C81.9704 33.6177 81.846 33.5843 81.7217 33.5508C81.6535 33.5324 81.5853 33.514 81.5172 33.495C80.836 33.3042 80.4405 33.4773 80.1135 34.121C79.7771 34.7831 79.7605 35.4933 79.7438 36.2047C79.7402 36.3572 79.7366 36.5099 79.7298 36.6621C79.7227 36.8241 79.7328 36.987 79.743 37.1521C79.7629 37.4729 79.7832 37.8015 79.6783 38.1464C79.4438 38.073 79.3397 37.8978 79.233 37.7182C79.1483 37.5757 79.062 37.4304 78.9075 37.3313C78.6421 38.2466 78.369 39.1609 77.3658 39.6C77.8458 38.527 77.4619 37.711 76.7737 36.9155C75.8092 35.8005 75.7234 34.5187 76.2388 33.1709C76.2861 33.0471 76.3293 32.9214 76.3675 32.7946C76.3761 32.7662 76.3735 32.7344 76.3709 32.7028C76.3698 32.6897 76.3688 32.6765 76.3685 32.6637C75.5794 32.2007 74.3011 32.6976 73.7854 33.7024C73.3848 34.483 73.2395 35.334 73.0942 36.1848C73.0532 36.4247 73.0123 36.6646 72.9656 36.9029C72.2956 40.3226 71.5977 43.7315 69.6062 46.702C69.1632 47.3629 69.0584 48.1302 68.9544 48.8919C68.9233 49.1194 68.8923 49.3464 68.8524 49.57C68.3661 52.2923 67.0628 54.4963 64.6962 55.9435C63.5268 56.6586 62.8412 57.4999 62.7478 58.9068C62.7077 59.5114 62.5998 60.1139 62.492 60.7154C62.353 61.4912 62.2143 62.2654 62.2218 63.0401C62.2391 64.8104 61.905 66.4749 61.5134 68.18C61.1315 69.8431 61.2604 71.5767 61.7158 73.2449C61.9059 73.941 62.3401 74.5224 62.874 75.0063C63.472 75.5484 64.0168 76.1259 64.3469 76.8738C64.5065 77.2354 64.7503 77.2568 65.1063 77.167C67.986 76.4405 70.8432 75.6353 73.6826 74.7657C73.7311 74.7509 73.7805 74.7378 73.8299 74.7248C73.9315 74.698 74.0332 74.6712 74.1275 74.6283C74.7881 74.328 75.2096 74.5662 75.6329 75.1265C77.2576 77.277 78.8969 79.4166 80.5362 81.5561C81.4886 82.799 82.441 84.042 83.3905 85.2871C83.7551 85.7653 83.7283 86.3137 83.7016 86.8597C83.7003 86.8862 83.699 86.9126 83.6978 86.939ZM52.5314 63.8228C52.6126 64.4729 52.6938 65.1229 52.7577 65.7748C53.1178 68.8357 52.6941 71.6799 51.6424 74.4273C51.2564 75.4356 51.5896 76.2924 51.9689 77.171C52.1085 77.4944 52.2973 77.4056 52.4873 77.3162C52.5808 77.2723 52.6746 77.2282 52.763 77.2329C53.0634 77.4149 53.0601 77.7202 53.0398 78.0001C53.0053 78.4749 53.0485 78.9565 53.2135 79.3769C53.4822 80.0614 53.187 80.2689 52.5955 80.4341C52.0506 80.5862 51.5047 80.7355 50.9587 80.8848C49.1325 81.3842 47.3057 81.8839 45.5152 82.4898C43.3821 83.2117 41.2041 83.6329 38.9921 83.9585C38.7053 84.0007 38.5532 83.9336 38.3694 83.7288L38.3576 83.7156C38.0661 83.3907 37.7633 83.0533 37.4016 82.8202C35.5639 81.6362 34.5581 79.8115 33.6108 77.9482C33.1092 76.9616 32.6273 75.9636 32.2405 74.9196C31.9576 74.1559 32.0339 73.4836 32.5139 72.8536C33.0648 72.1303 33.6277 71.4156 34.202 70.7107C35.7782 68.776 37.2385 66.7732 37.9688 64.3411C38.1425 63.7625 38.568 63.6447 39.0905 63.605C41.2098 63.4439 43.3132 63.1543 45.398 62.7426C47.5325 62.321 49.4951 61.4615 51.3521 60.3449C51.8755 60.0302 52.1812 60.1123 52.2089 60.6293C52.2661 61.6996 52.3987 62.7613 52.5314 63.8228ZM30.9207 81.4589C31.0973 82.2413 31.3656 82.9932 31.8176 83.667C32.0953 84.2017 32.3512 84.0055 32.5768 83.8326C32.6135 83.8044 32.6494 83.7769 32.6844 83.7533C32.713 83.7641 32.7383 83.7715 32.7603 83.7779C32.799 83.7891 32.827 83.7973 32.8425 83.8158C33.9003 85.0783 33.8366 85.3167 32.2617 85.6068C30.9019 85.8572 29.661 86.413 28.4202 86.9686C27.8013 87.2457 27.1824 87.5229 26.5489 87.7621C26.4779 87.7889 26.4059 87.8146 26.3337 87.8405C26.0687 87.9352 25.8013 88.0308 25.5735 88.1828C24.7493 88.7327 24.1193 88.5006 23.5184 87.8099C23.355 87.6221 23.1609 87.4641 22.9663 87.3059C22.6962 87.086 22.4251 86.8655 22.2345 86.5634C21.7512 85.7977 21.6305 84.92 21.6965 84.0676C21.8808 81.6855 22.2283 79.3227 22.8886 77.0172C23.1268 76.1854 23.5458 75.4908 24.2528 74.9483C24.8451 74.4938 25.4119 74.0061 26.0105 73.4909C26.2783 73.2606 26.5524 73.0247 26.838 72.7839C26.8805 74.2016 27.6413 75.1766 28.3949 76.1421C28.8117 76.6762 29.2263 77.2075 29.5159 77.8092C30.0861 78.9944 30.63 80.1715 30.9207 81.4589ZM55.5393 74.4432C55.4469 73.1825 55.5229 71.9217 55.7518 70.6742C55.7777 70.5219 55.7933 70.3777 55.8079 70.2422C55.8379 69.9654 55.864 69.7243 55.9661 69.5214C56.5812 68.3 56.749 66.9867 56.9168 65.673C56.9777 65.1959 57.0387 64.7188 57.1211 64.246C57.131 64.1891 57.1387 64.1305 57.1465 64.0711C57.1837 63.788 57.2233 63.4872 57.5157 63.272C57.9335 63.5947 58.0047 64.0839 58.0576 64.5103C58.414 67.3784 58.5277 70.2403 57.7189 73.0691C57.3861 74.2332 57.5802 74.9891 58.3468 75.9295L58.9305 75.6525C59.2085 76.2525 59.2532 76.8839 59.2971 77.5044C59.3102 77.6892 59.3232 77.873 59.3423 78.0548C59.3689 78.3076 59.0398 78.354 58.7777 78.391C58.7267 78.3982 58.6782 78.4051 58.6354 78.413C58.582 78.4229 58.5256 78.4405 58.468 78.4585C58.2555 78.5247 58.0255 78.5965 57.8601 78.309C57.5829 77.8271 57.2198 77.4132 56.8566 76.9993C56.6202 76.7298 56.3838 76.4603 56.1711 76.1721C55.7906 75.6565 55.5844 75.059 55.5393 74.4432Z" fill="#F1F5F9"/>
</svg>
